<svg width="16" height="16" viewBox="0 0 16 16" fill="none" xmlns="http://www.w3.org/2000/svg">
<g clip-path="url(#clip0)">
<path d="M15.3957 6.60908L8.86944 6.60876C8.58125 6.60876 8.34766 6.84233 8.34766 7.13051V9.21536C8.34766 9.50348 8.58125 9.73711 8.86941 9.73711H12.5446C12.1422 10.7815 11.391 11.6562 10.4327 12.2119L11.9998 14.9247C14.5136 13.4709 15.9998 10.92 15.9998 8.06439C15.9998 7.6578 15.9699 7.36714 15.9099 7.03986C15.8644 6.7912 15.6485 6.60908 15.3957 6.60908Z" fill="#167EE6"/>
<path d="M7.99985 12.8696C6.20129 12.8696 4.63116 11.8869 3.78788 10.4327L1.0752 11.9963C2.45566 14.3889 5.04173 16 7.99985 16C9.45101 16 10.8203 15.6093 11.9999 14.9284V14.9247L10.4328 12.2119C9.71595 12.6276 8.88645 12.8696 7.99985 12.8696Z" fill="#12B347"/>
<path d="M12 14.9287V14.925L10.4329 12.2122C9.71609 12.6279 8.88666 12.8699 8 12.8699V16.0003C9.45116 16.0003 10.8205 15.6096 12 14.9287Z" fill="#0F993E"/>
<path d="M3.13044 8.00019C3.13044 7.11366 3.37238 6.28425 3.78803 5.56747L1.07534 4.00391C0.390687 5.17975 0 6.54531 0 8.00019C0 9.45506 0.390687 10.8206 1.07534 11.9965L3.78803 10.4329C3.37238 9.71612 3.13044 8.88672 3.13044 8.00019Z" fill="#FFD500"/>
<path d="M7.99985 3.13056C9.1727 3.13056 10.25 3.54731 11.0915 4.24053C11.2991 4.41153 11.6008 4.39919 11.7909 4.20903L13.2681 2.73184C13.4839 2.51609 13.4685 2.16293 13.238 1.963C11.8282 0.739903 9.99382 0.00012207 7.99985 0.00012207C5.04173 0.00012207 2.45566 1.61128 1.0752 4.00384L3.78788 5.5674C4.63116 4.11325 6.20129 3.13056 7.99985 3.13056Z" fill="#FF4B26"/>
<path d="M11.0916 4.24053C11.2992 4.41153 11.601 4.39918 11.7911 4.20903L13.2683 2.73184C13.484 2.51609 13.4686 2.16293 13.2382 1.963C11.8283 0.739872 9.99397 0.00012207 8 0.00012207V3.13056C9.17281 3.13056 10.2502 3.54731 11.0916 4.24053Z" fill="#D93F21"/>
</g>
<defs>
<clipPath id="clip0">
<rect width="16" height="16" fill="white" transform="translate(0 0.00012207)"/>
</clipPath>
</defs>
</svg>
