<svg width="29" height="30" viewBox="0 0 29 30" fill="#fff" xmlns="http://www.w3.org/2000/svg">
<path d="M26.7668 0.599976H2.22598C1.05238 0.599976 0.0999756 1.52998 0.0999756 2.67518V27.322C0.0999756 28.4688 1.05238 29.4 2.22598 29.4H26.7668C27.9412 29.4 28.9 28.4688 28.9 27.322V2.67518C28.9 1.52998 27.9412 0.599976 26.7668 0.599976ZM8.64157 25.1416H4.36798V11.398H8.64157V25.1416ZM6.50478 9.51877C6.17949 9.51878 5.85739 9.45468 5.55688 9.33015C5.25637 9.20562 4.98335 9.02309 4.75341 8.79301C4.52347 8.56292 4.34113 8.28978 4.21679 7.98919C4.09245 7.6886 4.02857 7.36646 4.02878 7.04118C4.02878 6.38455 4.28962 5.75482 4.75392 5.29052C5.21822 4.82622 5.84795 4.56538 6.50457 4.56538C7.1612 4.56538 7.79093 4.82622 8.25523 5.29052C8.71953 5.75482 8.98038 6.38455 8.98038 7.04118C8.98038 7.69793 8.71962 8.32781 8.25541 8.7924C7.7912 9.25698 7.16153 9.51825 6.50478 9.51877ZM24.64 25.1416H20.3732V18.4584C20.3732 16.864 20.342 14.814 18.1528 14.814C15.9296 14.814 15.5908 16.5504 15.5908 18.3428V25.142H11.3208V11.398H15.4188V13.2748H15.4772C16.0476 12.1948 17.4412 11.0552 19.5196 11.0552C23.842 11.0552 24.6404 13.9008 24.6404 17.6028V25.1416H24.64Z" fill="#fff"/>
</svg>
