<svg width="33" height="32" viewBox="0 0 33 32" fill="#fff" xmlns="http://www.w3.org/2000/svg">
<path d="M16.4999 10.793C13.6328 10.793 11.2929 13.1328 11.2929 16C11.2929 18.8672 13.6328 21.207 16.4999 21.207C19.3671 21.207 21.707 18.8672 21.707 16C21.707 13.1328 19.3671 10.793 16.4999 10.793ZM32.1171 16C32.1171 13.8438 32.1367 11.707 32.0156 9.55469C31.8945 7.05469 31.3242 4.83594 29.496 3.00781C27.664 1.17578 25.4492 0.609377 22.9492 0.488283C20.7929 0.36719 18.6562 0.386721 16.5038 0.386721C14.3476 0.386721 12.2109 0.36719 10.0585 0.488283C7.55853 0.609377 5.33978 1.17969 3.51166 3.00781C1.67963 4.83985 1.11322 7.05469 0.992129 9.55469C0.871035 11.7109 0.890566 13.8477 0.890566 16C0.890566 18.1523 0.871035 20.293 0.992129 22.4453C1.11322 24.9453 1.68353 27.1641 3.51166 28.9922C5.34369 30.8242 7.55853 31.3906 10.0585 31.5117C12.2148 31.6328 14.3515 31.6133 16.5038 31.6133C18.6601 31.6133 20.7968 31.6328 22.9492 31.5117C25.4492 31.3906 27.6679 30.8203 29.496 28.9922C31.3281 27.1602 31.8945 24.9453 32.0156 22.4453C32.1406 20.293 32.1171 18.1563 32.1171 16ZM16.4999 24.0117C12.0663 24.0117 8.48822 20.4336 8.48822 16C8.48822 11.5664 12.0663 7.98828 16.4999 7.98828C20.9335 7.98828 24.5117 11.5664 24.5117 16C24.5117 20.4336 20.9335 24.0117 16.4999 24.0117ZM24.8398 9.53125C23.8046 9.53125 22.9687 8.69531 22.9687 7.66016C22.9687 6.625 23.8046 5.78906 24.8398 5.78906C25.8749 5.78906 26.7109 6.625 26.7109 7.66016C26.7112 7.90596 26.663 8.14941 26.5691 8.37656C26.4752 8.60371 26.3373 8.8101 26.1635 8.98391C25.9897 9.15772 25.7833 9.29553 25.5562 9.38945C25.329 9.48337 25.0856 9.53156 24.8398 9.53125Z" fill="#fff"/>
</svg>
