<svg width="31" height="26" viewBox="0 0 31 26" fill="#fff" xmlns="http://www.w3.org/2000/svg">
<path d="M30.9 3.44801C29.7467 3.95891 28.5234 4.2941 27.2708 4.44241C28.5901 3.65297 29.5775 2.41073 30.0488 0.947206C28.8086 1.68343 27.4515 2.20185 26.0364 2.48001C25.4451 1.84938 24.7306 1.34689 23.9372 1.00368C23.1438 0.66048 22.2884 0.483873 21.424 0.484806C17.9344 0.484806 15.1048 3.31361 15.1048 6.804C15.1048 7.2988 15.1608 7.78161 15.2688 8.24441C10.0168 7.9808 5.36076 5.46481 2.24396 1.64121C1.68198 2.60563 1.38669 3.70219 1.38835 4.81841C1.38753 5.85881 1.64371 6.88331 2.13413 7.80087C2.62456 8.71844 3.33405 9.50065 4.19956 10.078C3.19624 10.0461 2.21503 9.77515 1.33755 9.28761C1.33675 9.31401 1.33676 9.34 1.33676 9.3672C1.33676 12.428 3.51476 14.982 6.40516 15.5632C5.47446 15.8152 4.49864 15.8521 3.55155 15.6712C4.35556 18.1812 6.68916 20.0088 9.45436 20.06C7.21592 21.8166 4.45176 22.7694 1.60635 22.7652C1.09635 22.7652 0.593555 22.7356 0.0987549 22.6768C2.98809 24.5333 6.35081 25.5187 9.78516 25.5152C21.4084 25.5152 27.7644 15.8868 27.7644 7.5372C27.7644 7.2636 27.758 6.99041 27.746 6.71881C28.9838 5.82516 30.0519 4.71748 30.9 3.44801Z" fill="#fff"/>
</svg>
