<svg width="29" height="30" viewBox="0 0 29 30" fill="#fff" xmlns="http://www.w3.org/2000/svg">
<path d="M27.3104 0.599976H1.68958C1.26799 0.599976 0.863666 0.767451 0.565559 1.06556C0.267451 1.36367 0.0999756 1.76799 0.0999756 2.18958V27.8108C0.100082 28.2323 0.267604 28.6365 0.5657 28.9345C0.863796 29.2326 1.26806 29.4 1.68958 29.4H15.4828V18.2472H11.7296V13.9008H15.4828V10.6952C15.4828 6.97517 17.7548 4.94998 21.0732 4.94998C22.6628 4.94998 24.0288 5.06798 24.4272 5.12118V9.00877L22.1256 9.00998C20.3208 9.00998 19.9716 9.86757 19.9716 11.126V13.9012H24.2756L23.7152 18.2476H19.9716V29.4H27.3108C27.7323 29.3999 28.1365 29.2323 28.4345 28.9342C28.7326 28.6362 28.9 28.2319 28.9 27.8104V2.18958C28.9 1.76799 28.7325 1.36367 28.4344 1.06556C28.1363 0.767451 27.732 0.599976 27.3104 0.599976Z" fill="#fff"/>
</svg>
