<svg width="150" height="40" viewBox="0 0 150 40" fill="none" xmlns="http://www.w3.org/2000/svg">
<circle cx="20" cy="20" r="20" fill="#fff"/>
<circle cx="20" cy="20" r="14" fill="#1F2937"/>
<path d="M57.66 27V13H63.72C64.9733 13 66.0533 13.2067 66.96 13.62C67.8667 14.02 68.5667 14.6 69.06 15.36C69.5533 16.12 69.8 17.0267 69.8 18.08C69.8 19.12 69.5533 20.02 69.06 20.78C68.5667 21.54 67.8667 22.1267 66.96 22.54C66.0533 22.94 64.9733 23.14 63.72 23.14H59.46L60.9 21.68V27H57.66ZM60.9 22.04L59.46 20.5H63.54C64.54 20.5 65.2867 20.2867 65.78 19.86C66.2733 19.4333 66.52 18.84 66.52 18.08C66.52 17.3067 66.2733 16.7067 65.78 16.28C65.2867 15.8533 64.54 15.64 63.54 15.64H59.46L60.9 14.1V22.04ZM71.8736 27V16.24H74.8536V19.28L74.4336 18.4C74.7536 17.64 75.2669 17.0667 75.9736 16.68C76.6803 16.28 77.5403 16.08 78.5536 16.08V18.96C78.4203 18.9467 78.3003 18.94 78.1936 18.94C78.0869 18.9267 77.9736 18.92 77.8536 18.92C77.0003 18.92 76.3069 19.1667 75.7736 19.66C75.2536 20.14 74.9936 20.8933 74.9936 21.92V27H71.8736ZM85.4506 27.16C84.304 27.16 83.284 26.92 82.3906 26.44C81.5106 25.96 80.8106 25.3067 80.2906 24.48C79.784 23.64 79.5306 22.6867 79.5306 21.62C79.5306 20.54 79.784 19.5867 80.2906 18.76C80.8106 17.92 81.5106 17.2667 82.3906 16.8C83.284 16.32 84.304 16.08 85.4506 16.08C86.584 16.08 87.5973 16.32 88.4906 16.8C89.384 17.2667 90.084 17.9133 90.5906 18.74C91.0973 19.5667 91.3506 20.5267 91.3506 21.62C91.3506 22.6867 91.0973 23.64 90.5906 24.48C90.084 25.3067 89.384 25.96 88.4906 26.44C87.5973 26.92 86.584 27.16 85.4506 27.16ZM85.4506 24.6C85.9706 24.6 86.4373 24.48 86.8506 24.24C87.264 24 87.5906 23.66 87.8306 23.22C88.0706 22.7667 88.1906 22.2333 88.1906 21.62C88.1906 20.9933 88.0706 20.46 87.8306 20.02C87.5906 19.58 87.264 19.24 86.8506 19C86.4373 18.76 85.9706 18.64 85.4506 18.64C84.9306 18.64 84.464 18.76 84.0506 19C83.6373 19.24 83.304 19.58 83.0506 20.02C82.8106 20.46 82.6906 20.9933 82.6906 21.62C82.6906 22.2333 82.8106 22.7667 83.0506 23.22C83.304 23.66 83.6373 24 84.0506 24.24C84.464 24.48 84.9306 24.6 85.4506 24.6ZM94.5031 31.04C93.9431 31.04 93.3898 30.9533 92.8431 30.78C92.2965 30.6067 91.8498 30.3667 91.5031 30.06L92.6431 27.84C92.8831 28.0533 93.1565 28.22 93.4631 28.34C93.7831 28.46 94.0965 28.52 94.4031 28.52C94.8431 28.52 95.1898 28.4133 95.4431 28.2C95.7098 28 95.9498 27.66 96.1631 27.18L96.7231 25.86L96.9631 25.52L100.823 16.24H103.823L98.9631 27.66C98.6165 28.5267 98.2165 29.2067 97.7631 29.7C97.3231 30.1933 96.8298 30.54 96.2831 30.74C95.7498 30.94 95.1565 31.04 94.5031 31.04ZM96.3431 27.42L91.5431 16.24H94.7631L98.4831 25.24L96.3431 27.42ZM110.143 27.16C108.917 27.16 107.837 26.92 106.903 26.44C105.983 25.96 105.27 25.3067 104.763 24.48C104.257 23.64 104.003 22.6867 104.003 21.62C104.003 20.54 104.25 19.5867 104.743 18.76C105.25 17.92 105.937 17.2667 106.803 16.8C107.67 16.32 108.65 16.08 109.743 16.08C110.797 16.08 111.743 16.3067 112.583 16.76C113.437 17.2 114.11 17.84 114.603 18.68C115.097 19.5067 115.343 20.5 115.343 21.66C115.343 21.78 115.337 21.92 115.323 22.08C115.31 22.2267 115.297 22.3667 115.283 22.5H106.543V20.68H113.643L112.443 21.22C112.443 20.66 112.33 20.1733 112.103 19.76C111.877 19.3467 111.563 19.0267 111.163 18.8C110.763 18.56 110.297 18.44 109.763 18.44C109.23 18.44 108.757 18.56 108.343 18.8C107.943 19.0267 107.63 19.3533 107.403 19.78C107.177 20.1933 107.063 20.6867 107.063 21.26V21.74C107.063 22.3267 107.19 22.8467 107.443 23.3C107.71 23.74 108.077 24.08 108.543 24.32C109.023 24.5467 109.583 24.66 110.223 24.66C110.797 24.66 111.297 24.5733 111.723 24.4C112.163 24.2267 112.563 23.9667 112.923 23.62L114.583 25.42C114.09 25.98 113.47 26.4133 112.723 26.72C111.977 27.0133 111.117 27.16 110.143 27.16ZM122.62 27.16C121.46 27.16 120.427 26.9267 119.52 26.46C118.614 25.98 117.9 25.32 117.38 24.48C116.874 23.64 116.62 22.6867 116.62 21.62C116.62 20.54 116.874 19.5867 117.38 18.76C117.9 17.92 118.614 17.2667 119.52 16.8C120.427 16.32 121.46 16.08 122.62 16.08C123.754 16.08 124.74 16.32 125.58 16.8C126.42 17.2667 127.04 17.94 127.44 18.82L125.02 20.12C124.74 19.6133 124.387 19.24 123.96 19C123.547 18.76 123.094 18.64 122.6 18.64C122.067 18.64 121.587 18.76 121.16 19C120.734 19.24 120.394 19.58 120.14 20.02C119.9 20.46 119.78 20.9933 119.78 21.62C119.78 22.2467 119.9 22.78 120.14 23.22C120.394 23.66 120.734 24 121.16 24.24C121.587 24.48 122.067 24.6 122.6 24.6C123.094 24.6 123.547 24.4867 123.96 24.26C124.387 24.02 124.74 23.64 125.02 23.12L127.44 24.44C127.04 25.3067 126.42 25.98 125.58 26.46C124.74 26.9267 123.754 27.16 122.62 27.16ZM133.793 27.16C132.526 27.16 131.54 26.84 130.833 26.2C130.126 25.5467 129.773 24.58 129.773 23.3V13.86H132.893V23.26C132.893 23.7133 133.013 24.0667 133.253 24.32C133.493 24.56 133.82 24.68 134.233 24.68C134.726 24.68 135.146 24.5467 135.493 24.28L136.333 26.48C136.013 26.7067 135.626 26.88 135.173 27C134.733 27.1067 134.273 27.16 133.793 27.16ZM128.113 18.88V16.48H135.573V18.88H128.113ZM142.873 27.16C141.726 27.16 140.706 26.92 139.813 26.44C138.933 25.96 138.233 25.3067 137.713 24.48C137.206 23.64 136.953 22.6867 136.953 21.62C136.953 20.54 137.206 19.5867 137.713 18.76C138.233 17.92 138.933 17.2667 139.813 16.8C140.706 16.32 141.726 16.08 142.873 16.08C144.006 16.08 145.019 16.32 145.913 16.8C146.806 17.2667 147.506 17.9133 148.013 18.74C148.519 19.5667 148.773 20.5267 148.773 21.62C148.773 22.6867 148.519 23.64 148.013 24.48C147.506 25.3067 146.806 25.96 145.913 26.44C145.019 26.92 144.006 27.16 142.873 27.16ZM142.873 24.6C143.393 24.6 143.859 24.48 144.273 24.24C144.686 24 145.013 23.66 145.253 23.22C145.493 22.7667 145.613 22.2333 145.613 21.62C145.613 20.9933 145.493 20.46 145.253 20.02C145.013 19.58 144.686 19.24 144.273 19C143.859 18.76 143.393 18.64 142.873 18.64C142.353 18.64 141.886 18.76 141.473 19C141.059 19.24 140.726 19.58 140.473 20.02C140.233 20.46 140.113 20.9933 140.113 21.62C140.113 22.2333 140.233 22.7667 140.473 23.22C140.726 23.66 141.059 24 141.473 24.24C141.886 24.48 142.353 24.6 142.873 24.6Z" fill="#fff"/>
</svg>
